<?xml version="1.0" standalone="no"?>
<!DOCTYPE svg PUBLIC "-//W3C//DTD SVG 20010904//EN"
 "http://www.w3.org/TR/2001/REC-SVG-20010904/DTD/svg10.dtd">
<svg version="1.0" xmlns="http://www.w3.org/2000/svg"
 width="690.000000pt" height="690.000000pt" viewBox="0 0 690.000000 690.000000"
 preserveAspectRatio="xMidYMid meet">

<g transform="translate(0.000000,690.000000) scale(0.100000,-0.100000)"
fill="#000000" stroke="none">
<path d="M0 3450 l0 -3450 3450 0 3450 0 0 3450 0 3450 -3450 0 -3450 0 0
-3450z m5074 1853 c-3 -16 -12 -51 -21 -79 -47 -161 -223 -358 -389 -436 l-69
-33 -477 -3 -478 -3 0 -434 0 -435 253 0 c349 0 438 18 537 107 41 36 51 51
47 70 -6 34 11 39 24 6 16 -41 -3 -142 -42 -222 -21 -41 -58 -92 -101 -135
-37 -39 -66 -70 -65 -71 1 -1 22 -10 47 -21 82 -35 159 -93 187 -142 24 -40
28 -60 31 -143 5 -107 -11 -181 -50 -239 -53 -79 -141 -104 -191 -54 -39 39
-52 87 -37 138 15 53 27 66 56 66 43 0 59 -67 24 -97 -34 -29 -19 -93 22 -93
62 0 127 84 131 168 2 58 -12 89 -56 119 -68 47 -127 53 -484 53 l-333 0 0
-334 0 -334 28 -6 c15 -2 68 -8 117 -11 225 -17 566 -86 784 -160 157 -53 218
-46 271 31 25 38 50 121 50 170 0 17 -6 52 -14 77 -15 50 -6 71 21 45 35 -36
42 -179 19 -358 -19 -141 -46 -242 -113 -423 -76 -208 -83 -305 -23 -337 24
-13 50 11 50 46 0 40 34 27 38 -14 3 -25 -3 -39 -27 -62 -35 -35 -45 -37 -89
-10 -48 30 -66 79 -59 168 l5 73 -67 33 c-188 95 -538 175 -976 223 -245 27
-714 25 -895 -4 -309 -49 -543 -117 -717 -207 -57 -30 -103 -52 -103 -50 0 17
159 317 185 350 78 96 316 224 538 291 l47 14 0 388 0 389 -43 21 c-24 12 -57
21 -73 21 -49 0 -116 -40 -141 -85 -33 -59 -30 -97 12 -144 40 -44 42 -51 16
-51 -36 0 -79 47 -90 100 -34 160 97 332 273 356 l46 7 0 97 0 98 -35 31 c-49
43 -88 61 -145 68 -90 11 -170 -36 -205 -121 -21 -49 -12 -87 27 -126 35 -36
32 -48 -8 -28 -51 25 -69 62 -69 141 1 122 63 220 173 274 48 23 72 28 159 31
l103 4 0 273 0 274 -57 18 c-31 10 -58 24 -61 31 -5 17 50 16 246 -5 133 -14
178 -15 250 -6 48 6 95 14 105 18 16 7 17 -44 17 -973 0 -540 4 -983 8 -986 5
-3 25 -3 45 1 l37 6 2 979 3 980 95 32 c222 75 388 222 553 492 l38 61 57 -8
c31 -5 138 -13 237 -19 272 -18 560 9 708 64 84 32 89 32 81 -1z m-1179 -30
c-29 -124 -226 -318 -420 -415 -235 -119 -442 -143 -780 -92 -326 49 -482 31
-604 -72 -73 -61 -111 -189 -82 -277 53 -160 251 -219 402 -120 104 68 104
223 0 254 -39 12 -41 11 -71 -21 -28 -30 -32 -31 -53 -17 -30 20 -32 38 -7 70
18 22 30 27 66 27 47 0 107 -25 136 -57 10 -10 24 -35 33 -56 72 -174 -155
-348 -371 -282 -80 24 -137 74 -175 151 -29 58 -34 80 -37 161 -6 120 10 198
59 301 143 297 529 465 977 424 70 -7 225 -31 346 -54 213 -41 220 -41 305
-30 100 15 200 58 233 103 29 38 53 39 43 2z m169 -830 c17 -26 54 -63 83 -83
29 -19 52 -37 53 -40 0 -3 -16 -14 -36 -25 -39 -21 -99 -83 -116 -121 -6 -13
-15 -24 -19 -24 -4 0 -22 23 -40 51 -21 33 -53 65 -87 86 l-53 35 43 27 c45
29 85 71 115 121 9 16 19 27 21 25 3 -2 19 -26 36 -52z m2 -1308 c16 -26 52
-61 81 -81 29 -19 53 -37 53 -38 0 -2 -23 -19 -51 -37 -31 -19 -65 -54 -87
-86 l-35 -53 -34 50 c-30 44 -71 81 -128 115 -15 9 -10 16 40 48 35 24 68 57
87 87 17 27 34 48 38 45 3 -2 20 -25 36 -50z"/>
</g>
</svg>
